<svg width="18" height="18" viewBox="0 0 18 18" fill="none" xmlns="http://www.w3.org/2000/svg">
<g clip-path="url(#clip0_2028_23)">
<path d="M8.25 16.5V15.7061C7.57262 15.6303 6.91445 15.4531 6.2959 15.1826L5.89941 15.8701C5.69229 16.2287 5.23367 16.3516 4.875 16.1445C4.51631 15.9374 4.39353 15.4788 4.60059 15.1201L4.99609 14.4336C4.72527 14.234 4.46735 14.0142 4.22656 13.7734C3.98545 13.5323 3.76521 13.2742 3.56543 13.0029L2.87988 13.3994C2.52132 13.6064 2.06269 13.4835 1.85547 13.125C1.64845 12.7664 1.77138 12.3078 2.12988 12.1006L2.81641 11.7031C2.54617 11.0849 2.36964 10.427 2.29395 9.75H1.5C1.08579 9.75 0.75 9.41421 0.75 9C0.75 8.58579 1.08579 8.25 1.5 8.25H2.29395C2.36967 7.57275 2.54596 6.91434 2.81641 6.2959L2.12988 5.89941L2.06543 5.85742C1.75728 5.63499 1.66138 5.21117 1.85547 4.875C2.04971 4.53896 2.46497 4.40975 2.81152 4.56543L2.87988 4.60059L3.56543 4.99609C3.76509 4.72509 3.98563 4.46749 4.22656 4.22656C4.46749 3.98563 4.72509 3.76509 4.99609 3.56543L4.60059 2.87988L4.56543 2.81152C4.40968 2.46481 4.53875 2.0496 4.875 1.85547C5.2112 1.66141 5.63504 1.75734 5.85742 2.06543L5.89941 2.12988L6.2959 2.81641C6.91438 2.54595 7.57271 2.36869 8.25 2.29297V1.5C8.25 1.08579 8.58579 0.75 9 0.75C9.41421 0.75 9.75 1.08579 9.75 1.5V2.29297C10.427 2.36865 11.0849 2.54615 11.7031 2.81641L12.1006 2.12988C12.3078 1.77138 12.7664 1.64845 13.125 1.85547C13.4835 2.06269 13.6064 2.52132 13.3994 2.87988L13.0029 3.56543C13.2742 3.76521 13.5323 3.98545 13.7734 4.22656C14.0142 4.46735 14.234 4.72527 14.4336 4.99609L15.1201 4.60059C15.4787 4.3936 15.9373 4.51651 16.1445 4.875C16.3515 5.23356 16.2286 5.69219 15.8701 5.89941L15.1826 6.2959C15.4531 6.91445 15.6303 7.57262 15.7061 8.25H16.5C16.9142 8.25 17.25 8.58579 17.25 9C17.25 9.41421 16.9142 9.75 16.5 9.75H15.7061C15.6303 10.4271 15.4529 11.0848 15.1826 11.7031L15.8701 12.1006L15.9346 12.1426C16.2427 12.365 16.3386 12.7888 16.1445 13.125C15.9503 13.461 15.535 13.5902 15.1885 13.4346L15.1201 13.3994L14.4336 13.0029C14.2339 13.274 14.0144 13.5325 13.7734 13.7734C13.5325 14.0144 13.274 14.2339 13.0029 14.4336L13.3994 15.1201L13.4346 15.1885C13.5902 15.535 13.461 15.9503 13.125 16.1445C12.7888 16.3386 12.365 16.2427 12.1426 15.9346L12.1006 15.8701L11.7031 15.1826C11.0848 15.4529 10.4271 15.6303 9.75 15.7061V16.5C9.75 16.9142 9.41421 17.25 9 17.25C8.58579 17.25 8.25 16.9142 8.25 16.5ZM11.1182 9.75C11.0073 10.063 10.8301 10.3515 10.5908 10.5908C10.1689 11.0128 9.59674 11.25 9 11.25C8.86097 11.25 8.72365 11.235 8.58887 11.21L7.05078 13.873C7.66508 14.1188 8.32556 14.25 9 14.25L9.26074 14.2432C10.5582 14.1787 11.789 13.6348 12.7119 12.7119C13.5179 11.9059 14.0344 10.865 14.1953 9.75H11.1182ZM5.75293 4.87598C5.59088 5.00357 5.43541 5.14076 5.28809 5.28809C4.30352 6.27265 3.75 7.60761 3.75 9L3.75684 9.26074C3.82131 10.5582 4.36516 11.789 5.28809 12.7119C5.43527 12.8591 5.59105 12.9956 5.75293 13.123L7.29004 10.459C6.94382 10.0532 6.75 9.53724 6.75 9C6.75 8.46251 6.94351 7.94587 7.29004 7.54004L5.75293 4.87598ZM8.73926 3.75684C8.1556 3.78584 7.58559 3.91209 7.05078 4.12598L8.58887 6.78906C8.7236 6.76401 8.86103 6.75 9 6.75C9.59674 6.75 10.1689 6.98722 10.5908 7.40918C10.8301 7.64848 11.0073 7.93696 11.1182 8.25H14.1953C14.0344 7.13495 13.5179 6.09411 12.7119 5.28809C11.7273 4.30352 10.3924 3.75 9 3.75L8.73926 3.75684ZM8.25 9C8.25 9.19891 8.32907 9.38962 8.46973 9.53027C8.61038 9.67093 8.80109 9.75 9 9.75C9.19891 9.75 9.38962 9.67093 9.53027 9.53027C9.67093 9.38962 9.75 9.19891 9.75 9C9.75 8.80109 9.67093 8.61038 9.53027 8.46973C9.38962 8.32907 9.19891 8.25 9 8.25C8.80109 8.25 8.61038 8.32907 8.46973 8.46973C8.32907 8.61038 8.25 8.80109 8.25 9Z" fill="white"/>
</g>
<defs>
<clipPath id="clip0_2028_23">
<rect width="18" height="18" fill="white"/>
</clipPath>
</defs>
</svg>
