<svg width="20" height="20" viewBox="0 0 20 20" fill="none" xmlns="http://www.w3.org/2000/svg">
<rect width="20" height="20" rx="5" fill="#FF007A"/>
<path d="M7.78908 5.48072C7.64799 5.45881 7.64202 5.45622 7.70844 5.44601C7.83569 5.42639 8.13616 5.45312 8.34323 5.50242C8.82662 5.61751 9.26649 5.91233 9.73601 6.4359L9.86075 6.57501L10.0392 6.54627C10.7909 6.42528 11.5557 6.52143 12.1953 6.81738C12.3713 6.8988 12.6488 7.0609 12.6834 7.10255C12.6945 7.1158 12.7148 7.20126 12.7285 7.29243C12.776 7.60786 12.7522 7.84965 12.6559 8.03022C12.6035 8.1285 12.6006 8.15963 12.6358 8.24374C12.6639 8.31086 12.7423 8.36052 12.82 8.36043C12.979 8.36021 13.1501 8.10284 13.2293 7.74474L13.2608 7.60251L13.3232 7.67326C13.6654 8.06155 13.9341 8.59107 13.9803 8.96798L13.9923 9.06624L13.9348 8.97691C13.8358 8.82319 13.7364 8.71852 13.609 8.63413C13.3794 8.48198 13.1367 8.43021 12.4938 8.39628C11.9132 8.36563 11.5846 8.31597 11.2588 8.20954C10.7044 8.02851 10.4249 7.78741 9.76637 6.92205C9.47388 6.53771 9.29308 6.32504 9.11325 6.15378C8.70461 5.76465 8.30307 5.56057 7.78908 5.48072Z" fill="white"/>
<path d="M12.8143 6.3389C12.8289 6.08135 12.8638 5.91145 12.9339 5.75633C12.9617 5.69491 12.9877 5.64465 12.9917 5.64465C12.9957 5.64465 12.9836 5.68998 12.9649 5.74537C12.9139 5.89595 12.9055 6.10187 12.9406 6.34148C12.9852 6.64549 13.0106 6.68935 13.3314 7.01776C13.4819 7.1718 13.6569 7.36606 13.7203 7.44946L13.8357 7.60113L13.7203 7.49274C13.5792 7.3602 13.2548 7.10172 13.1831 7.06476C13.1351 7.03999 13.1279 7.0404 13.0982 7.06996C13.0709 7.0972 13.0652 7.1381 13.0614 7.33154C13.0555 7.63301 13.0145 7.82652 12.9154 8.02001C12.8619 8.12465 12.8534 8.10232 12.9019 7.98421C12.9381 7.89602 12.9418 7.85724 12.9415 7.56538C12.9409 6.97901 12.8714 6.83804 12.4638 6.59653C12.3605 6.53536 12.1904 6.44712 12.0857 6.40046C11.981 6.3538 11.8979 6.31313 11.9009 6.31011C11.9124 6.2986 12.31 6.4148 12.47 6.47643C12.708 6.56813 12.7473 6.58001 12.7762 6.56896C12.7955 6.56156 12.8049 6.50503 12.8143 6.3389Z" fill="white"/>
<path d="M8.06327 7.34205C7.77682 6.94707 7.59959 6.34144 7.63795 5.88872L7.64983 5.74862L7.71501 5.76054C7.83748 5.78292 8.04859 5.86163 8.14747 5.92176C8.41876 6.08678 8.53621 6.30405 8.65571 6.86197C8.6907 7.02537 8.73661 7.21029 8.75775 7.27292C8.79177 7.37369 8.92031 7.60907 9.02481 7.76195C9.10009 7.87203 9.0501 7.92421 8.88369 7.90916C8.62957 7.88618 8.28535 7.64826 8.06327 7.34205Z" fill="white"/>
<path d="M12.467 10.2818C11.1283 9.74193 10.6568 9.27334 10.6568 8.4827C10.6568 8.36635 10.6608 8.27114 10.6657 8.27114C10.6705 8.27114 10.7223 8.30955 10.7808 8.35648C11.0522 8.57454 11.3562 8.6677 12.1978 8.79065C12.693 8.86302 12.9717 8.92146 13.2287 9.00685C14.0458 9.27825 14.5513 9.82904 14.6719 10.5792C14.7069 10.7972 14.6864 11.206 14.6296 11.4214C14.5847 11.5916 14.4479 11.8983 14.4116 11.9101C14.4016 11.9134 14.3917 11.8748 14.3891 11.8222C14.3754 11.5405 14.2332 11.2663 13.9945 11.0608C13.7231 10.8272 13.3585 10.6413 12.467 10.2818Z" fill="white"/>
<path d="M11.5272 10.506C11.5104 10.4061 11.4813 10.2784 11.4625 10.2224L11.4283 10.1204L11.4918 10.1918C11.5796 10.2904 11.649 10.4168 11.7078 10.585C11.7527 10.7134 11.7577 10.7515 11.7574 10.9602C11.757 11.165 11.7514 11.208 11.71 11.3235C11.6446 11.5058 11.5635 11.635 11.4274 11.7737C11.1829 12.0229 10.8685 12.1609 10.4148 12.2182C10.3359 12.2281 10.1061 12.2449 9.90402 12.2554C9.39474 12.2819 9.05957 12.3367 8.7584 12.4427C8.7151 12.4579 8.67643 12.4671 8.67252 12.4632C8.66032 12.4511 8.86539 12.3286 9.03476 12.2469C9.27357 12.1317 9.51129 12.0688 10.0439 11.98C10.3071 11.9361 10.5788 11.8829 10.6478 11.8617C11.2994 11.6616 11.6343 11.1452 11.5272 10.506Z" fill="white"/>
<path d="M12.1408 11.5976C11.963 11.2146 11.9221 10.8449 12.0196 10.5001C12.03 10.4632 12.0468 10.4331 12.0568 10.4331C12.0669 10.4331 12.1089 10.4558 12.1501 10.4836C12.2321 10.5389 12.3964 10.6319 12.8344 10.8711C13.3809 11.1695 13.6925 11.4006 13.9044 11.6646C14.0899 11.8958 14.2048 12.1591 14.2601 12.4802C14.2913 12.6621 14.273 13.0998 14.2264 13.2829C14.0795 13.8604 13.738 14.3141 13.2509 14.5788C13.1795 14.6175 13.1155 14.6494 13.1085 14.6495C13.1016 14.6497 13.1276 14.5835 13.1663 14.5024C13.3302 14.1593 13.3488 13.8256 13.225 13.4542C13.1491 13.2268 12.9945 12.9493 12.6822 12.4803C12.3192 11.935 12.2301 11.7899 12.1408 11.5976Z" fill="white"/>
<path d="M7.1125 13.6638C7.60929 13.2437 8.2274 12.9453 8.79046 12.8537C9.03311 12.8142 9.43733 12.8299 9.66204 12.8874C10.0222 12.9798 10.3444 13.1865 10.512 13.4329C10.6757 13.6737 10.746 13.8835 10.8191 14.3504C10.848 14.5345 10.8794 14.7194 10.8889 14.7613C10.9438 15.0032 11.0507 15.1966 11.1832 15.2937C11.3936 15.448 11.7559 15.4576 12.1122 15.3183C12.1727 15.2947 12.2252 15.2784 12.2289 15.2821C12.2419 15.2949 12.0624 15.4152 11.9358 15.4786C11.7654 15.5638 11.63 15.5968 11.45 15.5968C11.1236 15.5968 10.8526 15.4304 10.6264 15.0913C10.582 15.0246 10.4819 14.8247 10.4042 14.6471C10.1654 14.1017 10.0475 13.9356 9.77033 13.7538C9.52908 13.5955 9.21796 13.5672 8.98391 13.6822C8.67647 13.8331 8.59068 14.2266 8.81089 14.476C8.89839 14.5751 9.06161 14.6606 9.19507 14.6772C9.44472 14.7083 9.65928 14.5181 9.65928 14.2656C9.65928 14.1017 9.59637 14.0082 9.43801 13.9366C9.22171 13.8388 8.98923 13.9531 8.99034 14.1566C8.99082 14.2434 9.02855 14.2979 9.11539 14.3372C9.17111 14.3625 9.17242 14.3645 9.12696 14.355C8.92851 14.3138 8.88202 14.0742 9.04159 13.9151C9.23316 13.7241 9.62931 13.8084 9.76535 14.0691C9.8225 14.1786 9.82914 14.3966 9.77931 14.5283C9.66778 14.8231 9.34263 14.978 9.01277 14.8937C8.78822 14.8363 8.69678 14.7741 8.42602 14.4948C7.95553 14.0094 7.77287 13.9153 7.09458 13.8092L6.9646 13.7889L7.1125 13.6638Z" fill="white"/>
<path fill-rule="evenodd" clip-rule="evenodd" d="M3.56471 2.79034C5.13594 4.70033 7.55829 7.67406 7.67857 7.84055C7.77785 7.97802 7.74049 8.1016 7.57039 8.19845C7.47579 8.25232 7.2813 8.30689 7.18392 8.30689C7.07379 8.30689 6.94973 8.25378 6.85938 8.16793C6.7955 8.10726 6.53776 7.72179 5.94274 6.79709C5.48746 6.08956 5.10645 5.50261 5.09607 5.49279C5.07204 5.47005 5.07245 5.47083 5.89632 6.94725C6.41364 7.87435 6.58828 8.20211 6.58828 8.24594C6.58828 8.3351 6.56401 8.38195 6.45419 8.50464C6.27113 8.70918 6.1893 8.939 6.13023 9.41466C6.06398 9.94785 5.87777 10.3245 5.36171 10.9691C5.05962 11.3465 5.01019 11.4156 4.93396 11.5677C4.83794 11.7592 4.81154 11.8665 4.80084 12.1083C4.78954 12.364 4.81157 12.5292 4.88957 12.7737C4.95785 12.9878 5.02912 13.1291 5.21134 13.4118C5.36859 13.6557 5.45916 13.837 5.45916 13.9079C5.45916 13.9643 5.46991 13.9644 5.71359 13.9093C6.29673 13.7774 6.77026 13.5454 7.03658 13.2611C7.20139 13.0852 7.24008 12.988 7.24133 12.7469C7.24215 12.5892 7.23662 12.5562 7.19407 12.4655C7.12478 12.3178 6.99864 12.195 6.72061 12.0046C6.35633 11.7552 6.20075 11.5544 6.15776 11.2783C6.1225 11.0517 6.16341 10.8919 6.36493 10.4688C6.57352 10.031 6.62521 9.84437 6.66018 9.40302C6.68276 9.11786 6.71404 9.0054 6.79584 8.91515C6.88114 8.82101 6.95794 8.78915 7.16907 8.76025C7.51328 8.71315 7.73245 8.62396 7.91262 8.45769C8.0689 8.31345 8.1343 8.17446 8.14435 7.96522L8.15196 7.80664L8.06463 7.70466C7.74834 7.33529 3.3529 2.5 3.33343 2.5C3.32928 2.5 3.43335 2.63066 3.56471 2.79034ZM5.6367 12.3977C5.70821 12.2708 5.67022 12.1078 5.5506 12.0281C5.43757 11.9528 5.26199 11.9883 5.26199 12.0864C5.26199 12.1163 5.27853 12.1381 5.31577 12.1573C5.37847 12.1896 5.38303 12.226 5.33369 12.3002C5.28372 12.3755 5.28776 12.4416 5.34507 12.4865C5.43745 12.559 5.5682 12.5191 5.6367 12.3977Z" fill="white"/>
<path fill-rule="evenodd" clip-rule="evenodd" d="M8.36922 8.84343C8.20765 8.89314 8.05057 9.06466 8.00193 9.24453C7.97227 9.35426 7.98911 9.54673 8.03355 9.60616C8.10532 9.70217 8.17473 9.72747 8.3627 9.72614C8.73067 9.72357 9.05058 9.5655 9.08777 9.36787C9.11828 9.2059 8.97777 8.98141 8.78424 8.88286C8.68438 8.83201 8.47199 8.81184 8.36922 8.84343ZM8.79941 9.18034C8.85616 9.09959 8.83134 9.01229 8.73483 8.95327C8.55104 8.84087 8.27308 8.93387 8.27308 9.10779C8.27308 9.19437 8.41801 9.2888 8.55089 9.2888C8.63931 9.2888 8.76033 9.236 8.79941 9.18034Z" fill="white"/>
</svg>
