<svg xmlns="http://www.w3.org/2000/svg" fill="none" viewBox="0 0 310 270">
  <path fill="#fff"
    d="M230.3 142.9c9.2-2.8 19 1.1 23.9 9.4l53.4 91.6a17.4 17.4 0 0 1-15 26.1H17.4c-14 0-22.2-16-14-27.4l24.2-34.4c2.7-3.8 6.6-6.6 11-8L230.3 143Z" />
  <path fill="#fff"
    d="M131.4 13.7c4-7 14.5-5.3 16 2.6L170 134.4a12.2 12.2 0 0 1-8.4 14L55 181.2a8.7 8.7 0 0 1-10-12.6l86.5-154.9Z"
    opacity=".8" />
  <path fill="#fff"
    d="M158.7 6.2c-1.1-5.7 6.6-8.7 9.6-3.6L236 120.1c1.8 3 .2 6.8-3 7.7l-39.3 11a8.6 8.6 0 0 1-10.8-6.8L158.7 6.2Z"
    opacity=".5" />
</svg>
